
<svg xmlns="http://www.w3.org/2000/svg" aria-hidden="true" style="position:absolute;width:0;height:0;overflow:hidden">
  <defs>
    <symbol id="icon-star-outline" viewBox="0 0 20 19">
      <path d="m10.008 1 2.028 4.818a2.01 2.01 0 0 0 1.691 1.218l5.258.416-3.996 3.382a1.99 1.99 0 0 0-.65 1.984l1.222 5.066-4.509-2.72a2.02 2.02 0 0 0-2.082 0l-4.509 2.72 1.224-5.066a1.99 1.99 0 0 0-.546-1.89L1.762 7.383l5.259-.416a2 2 0 0 0 1.69-1.218L10.008 1z"/>
    </symbol>
    <symbol id="icon-star-half" viewBox="0 0 20 19">
      <path d="M9.531.807a.512.512 0 0 1 .938 0l2.028 4.818c.218.519.71.87 1.27.914l5.266.417a.491.491 0 0 1 .291.865l-4.012 3.396c-.43.363-.62.937-.488 1.485l1.227 5.076c.1.412-.362.774-.76.534l-4.507-2.72a1.52 1.52 0 0 0-1.566 0l-4.508 2.72c-.398.24-.86-.122-.76-.534l1.227-5.076a1.49 1.49 0 0 0-.488-1.485L.676 7.82a.491.491 0 0 1 .29-.865l5.266-.417a1.51 1.51 0 0 0 1.27-.914z"/>
    </symbol>
    <symbol id="icon-star-filled" viewBox="0 0 20 19">
      <path d="M9.07.612c.345-.816 1.515-.816 1.86 0l2.028 4.82c.145.343.473.579.849.608l5.266.418c.892.07 1.254 1.17.574 1.745L15.635 11.6a.99.99 0 0 0-.324.985l1.225 5.077c.208.86-.74 1.54-1.503 1.08l-4.508-2.721a1.02 1.02 0 0 0-1.05 0l-4.508 2.72c-.764.461-1.711-.219-1.503-1.079l1.225-5.077a.99.99 0 0 0-.324-.985L.353 8.203c-.68-.575-.318-1.675.574-1.745l5.266-.418c.377-.03.704-.265.85-.609z"/>
    </symbol>
    <symbol id="icon-menu" viewBox="0 0 19 13">
      <path d="M.852 12.443q-.36 0-.606-.247Q0 11.949 0 11.58q0-.363.246-.605a.83.83 0 0 1 .606-.243h16.595q.36 0 .61.247c.25.247.248.368.248.61q0 .368-.248.61a.84.84 0 0 1-.61.243zm0-5.37a.82.82 0 0 1-.606-.247.83.83 0 0 1-.246-.61q0-.36.246-.604c.246-.244.365-.242.606-.242h16.595q.36 0 .61.247a.83.83 0 0 1 .248.609q0 .362-.248.604c-.248.242-.37.243-.61.243zm0-5.364q-.36 0-.606-.247Q0 1.216 0 1.092q0-.362.246-.604A.83.83 0 0 1 .851 0h16.595q.36 0 .61.247a.82.82 0 0 1 .248.609q0 .37-.248.611a.84.84 0 0 1-.61.242z"/>
    </symbol>
    <symbol id="icon-logo" viewBox="0 0 83 28">
      <path fill="currentColor" d="M14.281 17.457-.085-.167c-.323-.62-1.101-1.023-1.792-.927-.593.081-1.088.575-1.262 1.271-.187.751-.052 1.475.219 2.179.44 1.148 1.138 2.13 1.997 2.998.595.601 1.069.591 1.654-.02.812-.849 1.471-1.802 1.928-2.888.27-.64.469-1.299.499-1.999.021-.505-.044-.992-.331-1.426-.366-.55-.967-.713-1.558-.422-.367.18-.658.45-.887.786-.131.192-.246.395-.382.615"/>
    </symbol>
    <symbol id="icon-instagram" viewBox="0 0 18 18">
      <path d="M8.999 1.62c2.404 0 2.689.012 3.634.054.88.039 1.353.186 1.67.31.418.161.72.358 1.033.67.317.317.51.616.675 1.034.123.317.27.795.31 1.67.042.95.052 1.234.052 3.635s-.01 2.69-.053 3.635c-.038.88-.186 1.353-.309 1.67a2.8 2.8 0 0 1-.671 1.033c-.317.317-.616.51-1.034.675-.316.123-.794.27-1.67.31-.949.042-1.233.052-3.634.052s-2.69-.01-3.635-.053c-.88-.038-1.354-.186-1.67-.309a2.8 2.8 0 0 1-1.034-.672 2.8 2.8 0 0 1-.675-1.033c-.123-.316-.27-.794-.31-1.67-.041-.949-.052-1.233-.052-3.634s.01-2.69.053-3.635c.039-.88.186-1.354.31-1.67.161-.419.358-.72.67-1.034.317-.317.616-.51 1.034-.675.317-.123.795-.27 1.67-.31.946-.041 1.23-.052 3.635-.052z"/>
      <path d="M8.998 4.377a4.624 4.624 0 0 0 0 9.245 4.623 4.623 0 0 0 0-9.245m0 7.62a2.998 2.998 0 1 1 0-5.996 2.998 2.998 0 0 1 0 5.997M14.881 4.194a1.08 1.08 0 1 1-2.158 0 1.08 1.08 0 0 1 2.158 0"/>
    </symbol>
    <symbol id="icon-favicon" viewBox="0 0 28 28">
      <path d="m14.281 17.456-.085-.166c-.323-.62-1.101-1.023-1.792-.927-.593.081-1.088.575-1.262 1.271-.187.751-.052 1.475.219 2.179.44 1.148 1.138 2.13 1.997 2.998.595.601 1.069.591 1.654-.02.812-.849 1.471-1.802 1.928-2.888.27-.64.469-1.299.499-1.999.021-.505-.044-.992-.331-1.426-.366-.55-.967-.713-1.558-.422"/>
    </symbol>
    <symbol id="icon-facebook" viewBox="0 0 20 20">
      <path d="M20 10.061C20 4.505 15.523 0 10 0S0 4.505 0 10.061C0 15.083 3.657 19.245 8.438 20v-7.03h-2.54V10.06h2.54V7.845c0-2.522 1.492-3.915 3.777-3.915 1.094 0 2.238.197 2.238.197v2.476h-1.26c-1.243 0-1.63.775-1.63 1.57v1.888h2.773l-.443 2.908h-2.33V20c4.78-.755 8.437-4.917 8.437-9.939"/>
    </symbol>
    <symbol id="icon-close" viewBox="0 0 14 14">
      <path d="M12.175.5c.164 0 .266.049.346.129a.45.45 0 0 1 .13.346L7.268 6.575l.353.354 4.9 4.9c.08.08.13.182.13.346s-.05.266-.13.346-.182.13-.346.13a.45.45 0 0 1-.347-.13l-4.9-4.9-.353-.353-5.254 5.254a.45.45 0 0 1-.346.128.45.45 0 0 1-.346-.129.45.45 0 0 1-.129-.346c0-.164.049-.267.129-.347l5.253-5.253-.354-.353-4.9-4.9A.45.45 0 0 1 .5.974.45.45 0 0 1 .629.629.45.45 0 0 1 .975.5c.164 0 .266.049.346.129l4.9 4.9.354.353L11.828.629A.45.45 0 0 1 12.175.5z"/>
    </symbol>
    <symbol id="icon-arrow-forward" viewBox="0 0 16 16">
      <path d="M8.145.5c.07 0 .132.017.194.06L8.4.614l6.949 6.949a.4.4 0 0 1 .09.124.3.3 0 0 1 .024.124.3.3 0 0 1-.023.123.4.4 0 0 1-.091.126l-6.954 6.948c-.092.09-.17.116-.253.116-.081 0-.153-.025-.237-.11l-.005-.005-.051-.06a.3.3 0 0 1-.057-.183c0-.065.015-.123.057-.182l.051-.06 6.362-6.362H.852c-.122 0-.195-.035-.255-.096H.596C.535 8.006.5 7.933.5 7.811s.035-.195.096-.256c.061-.06.134-.096.256-.096h13.41L7.906 1.104a.35.35 0 0 1-.105-.185L7.795.852C7.794.762 7.82.688 7.9.607h.001A.31.31 0 0 1 8.145.5z"/>
    </symbol>
    <symbol id="icon-arrow-back" viewBox="0 0 16 16">
      <path d="M7.821.5c.086 0 .16.026.242.108a.34.34 0 0 1 .108.25c0 .086-.027.16-.108.243L1.7 7.46h13.41c.122 0 .197.036.261.1a.32.32 0 0 1 .097.253c0 .12-.035.191-.097.252a.34.34 0 0 1-.26.099H1.701l6.355 6.356v-.002c.082.083.11.16.111.251v.001a.3.3 0 0 1-.056.185l-.052.062a.31.31 0 0 1-.242.106.34.34 0 0 1-.256-.113L.614 8.063a.4.4 0 0 1-.09-.126.3.3 0 0 1-.024-.125q.001-.07.023-.122a.4.4 0 0 1 .091-.126l6.95-6.95A.35.35 0 0 1 7.821.5z"/>
    </symbol>
    <symbol id="icon-add" viewBox="0 0 15 15">
      <path d="M6.298 8.007H.852a.82.82 0 0 1-.607-.247.83.83 0 0 1 0-1.156q0-.362.246-.605a.83.83 0 0 1 .606-.242h5.446V.858q0-.36.247-.609a.82.82 0 0 1 .607-.249.8.8 0 0 1 .605.249.84.84 0 0 1 .249.609v5.446h5.446q.36 0 .609.247a.82.82 0 0 1 .249.609.8.8 0 0 1-.249.605.84.84 0 0 1-.609.242H8.001v5.446q0 .36-.247.607a.83.83 0 0 1-.609.245.82.82 0 0 1-.605-.245.83.83 0 0 1-.242-.607z"/>
    </symbol>
  </defs>
</svg>

