<svg xmlns="http://www.w3.org/2000/svg" aria-hidden="true" style="position:absolute;width:0;height:0;overflow:hidden">
    <defs>
        <symbol id="icon-star-outline" viewBox="0 0 20 19">
            <path d="m10.008 1 2.028 4.818a2.01 2.01 0 0 0 1.691 1.218l5.258.416-3.996 3.382a1.99 1.99 0 0 0-.65 1.984l1.222 5.066-4.509-2.72a2.02 2.02 0 0 0-2.082 0l-4.509 2.72 1.224-5.066a1.99 1.99 0 0 0-.546-1.89L1.762 7.383l5.259-.416a2 2 0 0 0 1.69-1.218L10.008 1z"/>
        </symbol>
        <symbol id="icon-star-half" viewBox="0 0 20 19">
            <path d="M9.531.807a.512.512 0 0 1 .938 0l2.028 4.818c.218.519.71.87 1.27.914l5.266.417a.491.491 0 0 1 .291.865l-4.012 3.396c-.43.363-.62.937-.488 1.485l1.227 5.076c.1.412-.362.774-.76.534l-4.507-2.72a1.52 1.52 0 0 0-1.566 0l-4.508 2.72c-.398.24-.86-.122-.76-.534l1.227-5.076a1.49 1.49 0 0 0-.488-1.485L.676 7.82a.491.491 0 0 1 .29-.865l5.266-.417a1.51 1.51 0 0 0 1.27-.914z"/>
        </symbol>
        <symbol id="icon-star-filled" viewBox="0 0 20 19">
            <path d="M9.07.612c.345-.816 1.515-.816 1.86 0l2.028 4.82c.145.343.473.579.849.608l5.266.418c.892.07 1.254 1.17.574 1.745L15.635 11.6a.99.99 0 0 0-.324.985l1.225 5.077c.208.86-.74 1.54-1.503 1.08l-4.508-2.721a1.02 1.02 0 0 0-1.05 0l-4.508 2.72c-.764.461-1.711-.219-1.503-1.079l1.225-5.077a.99.99 0 0 0-.324-.985L.353 8.203c-.68-.575-.318-1.675.574-1.745l5.266-.418c.377-.03.704-.265.85-.609z"/>
        </symbol>
        <symbol id="icon-menu" viewBox="0 0 19 13">
            <path d="M.852 12.443q-.36 0-.606-.247Q0 11.949 0 11.58q0-.363.246-.605a.83.83 0 0 1 .606-.243h16.595q.36 0 .61.247c.25.247.248.368.248.61q0 .368-.248.61a.84.84 0 0 1-.61.243zm0-5.37a.82.82 0 0 1-.606-.247.83.83 0 0 1-.246-.61q0-.36.246-.604c.246-.244.365-.242.606-.242h16.595q.36 0 .61.247a.83.83 0 0 1 .248.609q0 .362-.248.604c-.248.242-.37.243-.61.243zm0-5.364q-.36 0-.606-.247Q0 1.216 0 1.092q0-.362.246-.604A.83.83 0 0 1 .851 0h16.595q.36 0 .61.247a.82.82 0 0 1 .248.609q0 .37-.248.611a.84.84 0 0 1-.61.242z"/>
        </symbol>
        <symbol id="icon-logo" viewBox="0 0 83 28">
            <path fill="currentColor" d="M14.281 17.457-.085-.167c-.323-.62-1.101-1.023-1.792-.927-.593.081-1.088.575-1.262 1.271-.187.751-.052 1.475.219 2.179.44 1.148 1.138 2.13 1.997 2.998.595.601 1.069.591 1.654-.02.812-.849 1.471-1.802 1.928-2.888.27-.64.469-1.299.499-1.999.021-.505-.044-.992-.331-1.426-.366-.55-.967-.713-1.558-.422-.367.18-.658.45-.887.786-.131.192-.246.395-.382.615"/>
        </symbol>
        <symbol id="icon-instagram" viewBox="0 0 18 18">
            <path d="M8.999 1.62c2.404 0 2.689.012 3.634.054.88.039 1.353.186 1.67.31.418.161.72.358 1.033.67.317.317.51.616.675 1.034.123.317.27.795.31 1.67.042.95.052 1.234.052 3.635s-.01 2.69-.053 3.635c-.038.88-.186 1.353-.309 1.67a2.8 2.8 0 0 1-.671 1.033c-.317.317-.616.51-1.034.675-.316.123-.794.27-1.67.31-.949.042-1.233.052-3.634.052s-2.69-.01-3.635-.053c-.88-.038-1.354-.186-1.67-.309a2.8 2.8 0 0 1-1.034-.672 2.8 2.8 0 0 1-.675-1.033c-.123-.316-.27-.794-.31-1.67-.041-.949-.052-1.233-.052-3.634s.01-2.69.053-3.635c.039-.88.186-1.354.31-1.67.161-.419.358-.72.67-1.034.317-.317.616-.51 1.034-.675.317-.123.795-.27 1.67-.31.946-.041 1.23-.052 3.635-.052z"/>
            <path d="M8.998 4.377a4.624 4.624 0 0 0 0 9.245 4.623 4.623 0 0 0 0-9.245m0 7.62a2.998 2.998 0 1 1 0-5.996 2.998 2.998 0 0 1 0 5.997M14.881 4.194a1.08 1.08 0 1 1-2.158 0 1.08 1.08 0 0 1 2.158 0"/>
        </symbol>
        <symbol id="icon-favicon" viewBox="0 0 28 28">
            <path d="m14.281 17.456-.085-.166c-.323-.62-1.101-1.023-1.792-.927-.593.081-1.088.575-1.262 1.271-.187.751-.052 1.475.219 2.179.44 1.148 1.138 2.13 1.997 2.998.595.601 1.069.591 1.654-.02.812-.849 1.471-1.802 1.928-2.888.27-.64.469-1.299.499-1.999.021-.505-.044-.992-.331-1.426-.366-.55-.967-.713-1.558-.422"/>
        </symbol>
        <symbol id="icon-facebook" viewBox="0 0 20 20">
            <path d="M20 10.061C20 4.505 15.523 0 10 0S0 4.505 0 10.061C0 15.083 3.657 19.245 8.438 20v-7.03h-2.54V10.06h2.54V7.845c0-2.522 1.492-3.915 3.777-3.915 1.094 0 2.238.197 2.238.197v2.476h-1.26c-1.243 0-1.63.775-1.63 1.57v1.888h2.773l-.443 2.908h-2.33V20c4.78-.755 8.437-4.917 8.437-9.939"/>
        </symbol>
        <symbol id="icon-close" viewBox="0 0 14 14">
            <path d="M12.175.5c.164 0 .266.049.346.129a.45.45 0 0 1 .13.346L7.268 6.575l.353.354 4.9 4.9c.08.08.13.182.13.346s-.05.266-.13.346-.182.13-.346.13a.45.45 0 0 1-.347-.13l-4.9-4.9-.353-.353-5.254 5.254a.45.45 0 0 1-.346.128.45.45 0 0 1-.346-.129.45.45 0 0 1-.129-.346c0-.164.049-.267.129-.347l5.253-5.253-.354-.353-4.9-4.9A.45.45 0 0 1 .5.974.45.45 0 0 1 .629.629.45.45 0 0 1 .975.5c.164 0 .266.049.346.129l4.9 4.9.354.353L11.828.629A.45.45 0 0 1 12.175.5z"/>
        </symbol>
        <symbol id="icon-arrow-forward" viewBox="0 0 16 16">
            <path d="M8.145.5c.07 0 .132.017.194.06L8.4.614l6.949 6.949a.4.4 0 0 1 .09.124.3.3 0 0 1 .024.124.3.3 0 0 1-.023.123.4.4 0 0 1-.091.126l-6.954 6.948c-.092.09-.17.116-.253.116-.081 0-.153-.025-.237-.11l-.005-.005-.051-.06a.3.3 0 0 1-.057-.183c0-.065.015-.123.057-.182l.051-.06 6.362-6.362H.852c-.122 0-.195-.035-.255-.096H.596C.535 8.006.5 7.933.5 7.811s.035-.195.096-.256c.061-.06.134-.096.256-.096h13.41L7.906 1.104a.35.35 0 0 1-.105-.185L7.795.852C7.794.762 7.82.688 7.9.607h.001A.31.31 0 0 1 8.145.5z"/>
        </symbol>
        <symbol id="icon-arrow-back" viewBox="0 0 16 16">
            <path d="M7.821.5c.086 0 .16.026.242.108a.34.34 0 0 1 .108.25c0 .086-.027.16-.108.243L1.7 7.46h13.41c.122 0 .197.036.261.1a.32.32 0 0 1 .097.253c0 .12-.035.191-.097.252a.34.34 0 0 1-.26.099H1.701l6.355 6.356v-.002c.082.083.11.16.111.251v.001a.3.3 0 0 1-.056.185l-.052.062a.31.31 0 0 1-.242.106.34.34 0 0 1-.256-.113L.614 8.063a.4.4 0 0 1-.09-.126.3.3 0 0 1-.024-.125q.001-.07.023-.122a.4.4 0 0 1 .091-.126l6.95-6.95A.35.35 0 0 1 7.821.5z"/>
        </symbol>
        <symbol id="icon-add" viewBox="0 0 15 15">
            <path d="M6.298 8.007H.852a.82.82 0 0 1-.607-.247.83.83 0 0 1 0-1.156q0-.362.246-.605a.83.83 0 0 1 .606-.242h5.446V.858q0-.36.247-.609a.82.82 0 0 1 .607-.249.8.8 0 0 1 .605.249.84.84 0 0 1 .249.609v5.446h5.446q.36 0 .609.247a.82.82 0 0 1 .249.609.8.8 0 0 1-.249.605.84.84 0 0 1-.609.242H8.001v5.446q0 .36-.247.607a.83.83 0 0 1-.609.245.82.82 0 0 1-.605-.245.83.83 0 0 1-.242-.607z"/>
        </symbol>
        <symbol id="logo-icon" viewBox="0 0 97 32">
            <path d="M16.687 20.398c-0.039-0.077-0.069-0.136-0.1-0.195-0.377-0.724-1.287-1.195-2.094-1.083-0.693 0.095-1.271 0.672-1.474 1.486-0.219 0.878-0.061 1.724 0.255 2.546 0.515 1.341 1.33 2.489 2.334 3.504 0.695 0.702 1.248 0.69 1.932-0.024 0.949-0.992 1.719-2.105 2.254-3.374 0.315-0.748 0.547-1.518 0.582-2.335 0.025-0.591-0.051-1.159-0.387-1.666-0.427-0.644-1.129-0.833-1.82-0.493-0.429 0.211-0.769 0.527-1.037 0.918-0.154 0.224-0.288 0.462-0.446 0.718zM30.054 24.168c-0.016 1.106-0.265 2.16-0.774 3.139-0.864 1.661-2.114 2.948-3.788 3.811-1.65 0.851-3.341 0.948-5.068 0.271-0.701-0.275-1.401-0.559-2.084-0.874-1.242-0.573-2.48-0.567-3.75-0.092-0.892 0.334-1.798 0.639-2.713 0.904-0.948 0.274-1.923 0.374-2.912 0.262-0.855-0.097-1.577-0.476-2.203-1.049-0.798-0.731-1.437-1.584-1.839-2.59-0.516-1.289-0.392-2.533 0.359-3.708 0.589-0.92 1.383-1.654 2.153-2.413 0.56-0.552 1.107-1.119 1.623-1.711 0.595-0.684 0.95-1.51 1.244-2.358 0.273-0.787 0.521-1.583 0.791-2.371 0.195-0.57 0.552-1.043 0.906-1.523 0.85-1.156 2.064-1.662 3.403-1.959 1.588-0.353 2.972 0.102 4.152 1.147 0.727 0.643 1.355 1.395 2.032 2.095 1.152 1.192 2.374 2.305 3.743 3.246 0.681 0.468 1.397 0.888 2.072 1.363 0.967 0.681 1.783 1.506 2.281 2.603 0.261 0.574 0.364 1.183 0.372 1.81z"></path>
            <path d="M14.463 7.77c0.003 0.885-0.154 1.841-0.574 2.739-0.449 0.961-1.098 1.72-2.167 2.016-0.879 0.243-1.69 0.047-2.447-0.425-0.995-0.621-1.668-1.523-2.169-2.561-0.727-1.506-1.007-3.1-0.858-4.765 0.088-0.984 0.366-1.903 0.916-2.74 0.948-1.442 2.652-1.85 4.133-0.972 0.961 0.57 1.634 1.401 2.146 2.372 0.698 1.323 1.030 2.739 1.019 4.336z"></path>
            <path d="M24.808 5.132c0.002 1.804-0.331 3.317-1.152 4.702-0.459 0.774-1.046 1.433-1.857 1.857-1.186 0.62-2.491 0.393-3.422-0.576-0.737-0.767-1.137-1.701-1.351-2.723-0.37-1.767-0.179-3.492 0.447-5.171 0.303-0.812 0.745-1.556 1.381-2.156 0.586-0.553 1.253-0.986 2.085-1.055 1.058-0.088 1.889 0.361 2.553 1.153 0.685 0.817 1.026 1.786 1.196 2.82 0.073 0.446 0.095 0.9 0.12 1.148z"></path>
            <path d="M0 13.828c0.015-0.806 0.168-1.563 0.647-2.22 0.626-0.859 1.502-1.175 2.537-1.111 1.047 0.066 1.939 0.518 2.74 1.156 1.426 1.137 2.369 2.589 2.744 4.385 0.166 0.795 0.178 1.597-0.1 2.371-0.478 1.331-1.568 2.018-2.989 1.908-0.884-0.068-1.662-0.422-2.376-0.925-1.539-1.085-2.53-2.559-3.031-4.361-0.108-0.387-0.118-0.801-0.173-1.203z"></path>
            <path d="M32.376 11.314c-0.238 2.502-1.256 4.436-3.231 5.83-0.548 0.387-1.165 0.611-1.838 0.679-1.139 0.115-2.174-0.526-2.602-1.623-0.376-0.964-0.354-1.951-0.118-2.933 0.456-1.89 1.471-3.417 3.068-4.536 0.707-0.495 1.509-0.698 2.371-0.626 1.002 0.084 1.85 0.836 2.143 1.942 0.118 0.447 0.152 0.917 0.207 1.267z"></path>
            <path d="M79.311 19.614h2.303l-3.037 3.675 3.304 3.99h-2.372l-3.133-3.887v3.887h-2.091v-7.665h2.091v3.723l2.934-3.723z"></path>
            <path d="M72.839 23.433c0 0.64-0.087 1.207-0.261 1.7-0.169 0.494-0.418 0.912-0.747 1.255-0.324 0.338-0.718 0.594-1.179 0.768-0.457 0.174-0.974 0.261-1.55 0.261-0.539 0-1.035-0.087-1.488-0.261-0.447-0.174-0.838-0.43-1.172-0.768-0.329-0.343-0.585-0.761-0.767-1.255-0.178-0.494-0.268-1.060-0.268-1.7 0-0.85 0.151-1.57 0.452-2.16s0.732-1.038 1.289-1.344 1.223-0.459 1.995-0.459c0.718 0 1.353 0.153 1.906 0.459 0.558 0.306 0.994 0.754 1.31 1.344 0.32 0.59 0.48 1.309 0.48 2.16zM67.54 23.433c0 0.503 0.055 0.926 0.164 1.268s0.281 0.601 0.514 0.775c0.233 0.174 0.537 0.261 0.911 0.261 0.37 0 0.67-0.087 0.898-0.261 0.233-0.174 0.402-0.432 0.507-0.775 0.11-0.343 0.165-0.766 0.165-1.268 0-0.507-0.055-0.928-0.165-1.261-0.105-0.338-0.274-0.592-0.507-0.761s-0.537-0.254-0.912-0.254c-0.553 0-0.955 0.19-1.207 0.569-0.247 0.379-0.37 0.948-0.37 1.707z"></path>
            <path d="M63.961 19.614v7.665h-2.098v-6.095h-2.777v6.095h-2.091v-7.665h6.966z"></path>
            <path d="M51.927 19.456c1.028 0 1.817 0.224 2.365 0.672s0.823 1.129 0.823 2.043v5.108h-1.46l-0.404-1.042h-0.055c-0.219 0.274-0.443 0.498-0.672 0.672s-0.491 0.302-0.788 0.384c-0.297 0.082-0.658 0.123-1.083 0.123-0.453 0-0.859-0.087-1.22-0.261-0.356-0.174-0.638-0.439-0.843-0.795-0.206-0.361-0.309-0.818-0.309-1.371 0-0.814 0.286-1.412 0.857-1.796 0.571-0.389 1.428-0.603 2.571-0.645l1.33-0.041v-0.336c0-0.402-0.105-0.697-0.315-0.884s-0.503-0.281-0.878-0.281c-0.37 0-0.734 0.053-1.090 0.158s-0.713 0.238-1.069 0.398l-0.693-1.412c0.407-0.215 0.862-0.384 1.364-0.507 0.507-0.123 1.031-0.185 1.57-0.185zM53.038 23.727l-0.809 0.027c-0.676 0.018-1.147 0.139-1.412 0.363-0.261 0.224-0.391 0.519-0.391 0.884 0 0.32 0.094 0.548 0.281 0.686 0.187 0.133 0.432 0.199 0.734 0.199 0.448 0 0.825-0.133 1.131-0.398 0.311-0.265 0.466-0.642 0.466-1.131v-0.631z"></path>
            <path d="M46.703 27.279h-2.118v-8.254h-2.454c-0.055 0.43-0.114 0.898-0.178 1.405s-0.13 1.019-0.199 1.536c-0.069 0.517-0.142 1.008-0.219 1.474-0.073 0.466-0.146 0.875-0.219 1.227-0.119 0.585-0.281 1.083-0.487 1.495-0.201 0.407-0.478 0.718-0.83 0.932-0.347 0.215-0.802 0.322-1.364 0.322-0.187 0-0.368-0.014-0.542-0.041-0.169-0.027-0.327-0.064-0.473-0.11v-1.741c0.119 0.041 0.238 0.075 0.356 0.103 0.119 0.023 0.249 0.034 0.391 0.034 0.183 0 0.334-0.059 0.453-0.178 0.123-0.123 0.233-0.331 0.329-0.624 0.096-0.297 0.192-0.706 0.288-1.227 0.041-0.229 0.096-0.551 0.165-0.967 0.069-0.421 0.146-0.912 0.233-1.474 0.087-0.567 0.176-1.184 0.267-1.851 0.096-0.667 0.187-1.362 0.274-2.084h6.328v10.023z"></path>
            <path d="M93.798 6.62c1.028 0 1.817 0.224 2.365 0.672s0.823 1.129 0.823 2.043v5.108h-1.46l-0.404-1.042h-0.055c-0.22 0.274-0.443 0.498-0.672 0.672s-0.491 0.302-0.788 0.384-0.658 0.123-1.083 0.123c-0.452 0-0.859-0.087-1.22-0.261-0.357-0.174-0.638-0.439-0.844-0.795-0.206-0.361-0.308-0.818-0.308-1.371 0-0.814 0.286-1.412 0.857-1.796 0.571-0.389 1.428-0.603 2.57-0.644l1.33-0.041v-0.336c0-0.402-0.105-0.697-0.316-0.884s-0.503-0.281-0.878-0.281c-0.37 0-0.734 0.053-1.090 0.158s-0.713 0.238-1.070 0.398l-0.692-1.412c0.407-0.215 0.862-0.384 1.364-0.507 0.507-0.123 1.031-0.185 1.57-0.185zM94.908 10.891l-0.809 0.027c-0.676 0.018-1.147 0.139-1.412 0.363-0.26 0.224-0.391 0.519-0.391 0.884 0 0.32 0.094 0.549 0.281 0.686 0.187 0.133 0.432 0.199 0.734 0.199 0.448 0 0.825-0.133 1.131-0.398 0.311-0.265 0.466-0.642 0.466-1.131v-0.631z"></path>
            <path d="M87.27 6.777h2.303l-3.037 3.675 3.305 3.99h-2.372l-3.133-3.887v3.887h-2.091v-7.665h2.091v3.723l2.934-3.723z"></path>
            <path d="M75.321 6.777v2.948h2.921v-2.948h2.091v7.665h-2.091v-3.161h-2.921v3.16h-2.091v-7.665h2.091z"></path>
            <path d="M65.414 6.777v3.030c0 0.155-0.007 0.352-0.020 0.59-0.009 0.233-0.023 0.471-0.041 0.713s-0.036 0.459-0.055 0.651c-0.018 0.192-0.032 0.322-0.041 0.391l3.538-5.375h2.516v7.665h-2.022v-3.058c0-0.251 0.009-0.528 0.027-0.83 0.018-0.306 0.039-0.594 0.062-0.864s0.039-0.473 0.047-0.61l-3.524 5.361h-2.509v-7.665h2.022z"></path>
            <path d="M62.24 8.347h-2.509v6.095h-2.091v-6.095h-2.516v-1.57h7.116v1.57z"></path>
            <path d="M50.832 6.62c1.028 0 1.817 0.224 2.365 0.672s0.823 1.129 0.823 2.043v5.108h-1.46l-0.404-1.042h-0.055c-0.219 0.274-0.443 0.498-0.672 0.672s-0.491 0.302-0.788 0.384c-0.297 0.082-0.658 0.123-1.083 0.123-0.453 0-0.859-0.087-1.22-0.261-0.356-0.174-0.638-0.439-0.843-0.795-0.206-0.361-0.309-0.818-0.309-1.371 0-0.814 0.286-1.412 0.857-1.796 0.571-0.389 1.428-0.603 2.571-0.644l1.33-0.041v-0.336c0-0.402-0.105-0.697-0.315-0.884s-0.503-0.281-0.878-0.281c-0.37 0-0.734 0.053-1.090 0.158s-0.713 0.238-1.069 0.398l-0.692-1.412c0.407-0.215 0.862-0.384 1.364-0.507 0.507-0.123 1.031-0.185 1.57-0.185zM51.942 10.891l-0.809 0.027c-0.676 0.018-1.147 0.139-1.412 0.363-0.261 0.224-0.391 0.519-0.391 0.884 0 0.32 0.094 0.549 0.281 0.686 0.187 0.133 0.432 0.199 0.734 0.199 0.448 0 0.825-0.133 1.131-0.398 0.311-0.265 0.466-0.642 0.466-1.131v-0.631z"></path>
            <path d="M46.876 14.442h-2.427l-2.331-3.791-2.331 3.791h-2.276l3.325-5.169-3.112-4.854h2.345l2.16 3.606 2.118-3.606h2.29l-3.147 4.97 3.387 5.053z"></path>
        </symbol>
    </defs>
</svg>